<svg height="150" viewBox="0 0 150 150" width="150" xmlns="http://www.w3.org/2000/svg"><circle cx="75.012" cy="74.996" fill="#A92923" opacity=".1" r="75"/><path d="M75.012-.004v150c41.42 0 75-33.578 75-75s-33.58-75-75-75z" fill="#A92923" opacity=".1"/><circle cx="75.012" cy="74.996" fill="#A92923" r="65.488"/><path d="M75.012 9.508v130.977c36.167 0 65.487-29.32 65.487-65.488S111.18 9.507 75.01 9.507z" fill="#99241D"/><path d="M9.597 72.068c-.042.97-.073 1.945-.073 2.928 0 36.168 29.32 65.488 65.488 65.488v-5.854c-35.188 0-63.882-27.75-65.415-62.562z" fill="#99241D"/><path d="M140.426 72.068c-1.532 34.81-30.228 62.562-65.414 62.562v5.854c36.167 0 65.487-29.32 65.487-65.488 0-.982-.03-1.957-.074-2.928z" fill="#881D16"/><path d="M93.73 75.956c0 6.202-1.976 11.84-5.177 15.99-4.032-4.29-10.344-7.805-18.357-7.357v7.3s5.432.21 9.154 6.607c-1.392.41-2.844.632-4.34.632-10.34 0-18.723-10.372-18.723-23.174v-9.574c0-12.79 8.383-23.165 18.723-23.165s18.72 10.376 18.72 23.165v9.574zm.26 26.7c10.436-6.555 17.388-18.25 17.388-31.606 0-20.518-16.412-37.16-36.648-37.16-20.244 0-36.65 16.643-36.65 37.16 0 20.513 16.406 37.15 36.65 37.15 2.98 0 5.87-.376 8.643-1.053 3.477 6.33 8.778 10.81 20.026 8.664v-6.292c-.002 0-7.218-1.813-9.41-6.863z" fill="#FFF"/></svg>